<?xml version="1.0" encoding="utf-8"?>
<svg viewBox="45.844 40.134 23.037 17.324" xmlns="http://www.w3.org/2000/svg">
  <g transform="matrix(0.005441, 0, 0, 0.005441, 56.426745, 53.214011)" style="">
    <path class="fil1" d="M -1860 -2404.06 L 2204 -2404.06 C 2251 -2404.06 2289 -2366.06 2289 -2320.06 L 2289 695.94 C 2289 741.94 2251 779.94 2204 779.94 L -1860 779.94 C -1907 779.94 -1945 741.94 -1945 695.94 L -1945 -2320.06 C -1945 -2366.06 -1907 -2404.06 -1860 -2404.06 Z M 2119 -2235.06 L -1775 -2235.06 L -1775 610.94 L 2119 610.94 L 2119 -2235.06 Z" style="fill-rule: nonzero; stroke: rgb(255, 255, 255); fill: rgb(255, 255, 255);"/>
    <path class="fil1" d="M -1920 -2260.06 C -1953 -2293.06 -1953 -2346.06 -1920 -2379.06 C -1887 -2412.06 -1834 -2412.06 -1800 -2380.06 L 232 -348.06 C 265 -315.06 265 -262.06 232 -229.06 C 199 -196.06 146 -196.06 112 -228.06 L -1920 -2260.06 Z" style="fill-rule: nonzero; stroke: rgb(255, 255, 255); fill: rgb(255, 255, 255);"/>
    <path class="fil1" d="M 2144 -2380.06 C 2178 -2412.06 2231 -2412.06 2264 -2379.06 C 2297 -2346.06 2297 -2293.06 2264 -2260.06 L 232 -228.06 C 199 -196.06 145 -196.06 112 -229.06 C 79 -262.06 79 -315.06 113 -348.06 L 2144 -2380.06 Z" style="fill-rule: nonzero; stroke: rgb(255, 255, 255); fill: rgb(255, 255, 255);"/>
  </g>
</svg>