<?xml version="1.0" encoding="utf-8"?>
<svg viewBox="41.327 44.118 19.791 19.791" xmlns="http://www.w3.org/2000/svg">
  <path style="color: rgb(0, 0, 0); font: medium sans-serif; font-feature-settings: normal; font-variation-settings: normal; text-indent: 0px; text-align: start; text-decoration: none solid rgb(0, 0, 0); letter-spacing: normal; word-spacing: normal; text-transform: none; writing-mode: lr-tb; direction: ltr; text-orientation: mixed; dominant-baseline: auto; baseline-shift: baseline; text-anchor: start; white-space: normal; shape-margin: 0px; inline-size: 0px; clip-rule: nonzero; display: inline; overflow: visible; visibility: visible; isolation: auto; mix-blend-mode: normal; color-interpolation: srgb; color-interpolation-filters: linearrgb; vector-effect: none; fill: rgb(0, 0, 0); fill-opacity: 1; fill-rule: nonzero; stroke-linecap: square; stroke-linejoin: miter; stroke-miterlimit: 4; stroke-dasharray: none; stroke-dashoffset: 0; stroke-opacity: 1; paint-order: fill markers; color-rendering: auto; image-rendering: auto; shape-rendering: auto; text-rendering: auto; stop-color: rgb(0, 0, 0); stroke: rgb(255, 255, 255);" d="M 51.223 44.118 C 45.761 44.118 41.327 48.551 41.327 54.013 C 41.327 59.475 45.761 63.909 51.223 63.909 C 56.685 63.909 61.118 59.475 61.118 54.013 C 61.118 48.551 56.685 44.118 51.223 44.118 Z M 51.223 44.618 C 56.415 44.618 60.618 48.821 60.618 54.013 C 60.618 59.205 56.415 63.409 51.223 63.409 C 46.031 63.409 41.827 59.205 41.827 54.013 C 41.827 48.821 46.031 44.618 51.223 44.618 Z" id="path1048"/>
  <path id="path-1" style="stroke-linecap: square; stroke-miterlimit: 4; stroke-dasharray: none; stroke-opacity: 1; paint-order: fill markers; fill: none; stroke: rgb(255, 255, 255);" d="M 47.977 48.961 C 47.7 49.12 47.491 49.293 47.54 49.575 L 49.418 52.826 C 49.765 52.327 50.274 52.127 50.816 51.814 C 51.165 51.613 51.285 51.171 51.084 50.824 L 49.774 48.555 C 49.573 48.207 49.22 48.243 48.871 48.444 L 47.977 48.961 Z M 47.419 49.751 C 46.154 51.163 46.212 53.855 47.584 56.232 C 48.956 58.608 51.258 60.005 53.115 59.616 L 51.293 56.461 C 50.579 56.376 50.037 55.583 49.698 55.012 C 49.379 54.475 49.083 53.686 49.317 53.039 L 47.419 49.751 Z M 51.519 56.465 L 53.359 59.653 C 53.567 59.813 53.815 59.709 54.09 59.55 L 54.985 59.034 C 55.333 58.832 55.56 58.577 55.359 58.229 L 54.05 55.96 C 53.849 55.613 53.407 55.495 53.058 55.697 L 52.164 56.213 C 51.936 56.369 51.722 56.446 51.519 56.465 Z"/>
</svg>