<?xml version='1.0' encoding='utf-8'?>
<svg xmlns="http://www.w3.org/2000/svg" width="80mm" height="80mm" viewBox="0 0 80 80" version="1.1" id="svg8"> <defs id="defs2"/> <metadata id="metadata5"> </metadata> <g id="layer1" transform="translate(6.9465528,99.969955)"> <rect style="fill:#ffffff;fill-opacity:1;stroke:none;stroke-width:0.7;stroke-linecap:square;stroke-miterlimit:4;stroke-dasharray:none;stroke-opacity:1;paint-order:fill markers stroke" id="rect991" width="80" height="80" x="-6.9465528" y="-99.969955"/> <circle style="fill:#000000;stroke:none;stroke-width:0.5;stroke-linecap:square;stroke-miterlimit:4;stroke-dasharray:none;stroke-opacity:1;paint-order:fill markers stroke" id="circle953" cx="46.767315" cy="-73.884048" r="9.6455688"/> <path id="path955" style="fill:#ffffff;stroke:none;stroke-width:0.499999;stroke-linecap:square;stroke-miterlimit:4;stroke-dasharray:none;stroke-opacity:1;paint-order:fill markers stroke" d="m 43.771156,-78.936377 c -0.276377,0.159566 -0.485124,0.332371 -0.436129,0.613952 l 1.877424,3.251793 c 0.347291,-0.498944 0.856378,-0.698946 1.39848,-1.011929 0.348922,-0.20145 0.468248,-0.643056 0.267646,-0.990509 l -1.310057,-2.269086 c -0.200603,-0.347454 -0.55435,-0.311876 -0.903272,-0.110426 z m -0.557892,0.789956 c -1.264781,1.412557 -1.20665,4.104454 0.165699,6.481455 1.371958,2.37627 3.673748,3.773508 5.530254,3.384225 l -1.821701,-3.15528 c -0.713671,-0.08531 -1.255749,-0.877857 -1.594991,-1.449211 -0.3187,-0.536644 -0.614609,-1.325813 -0.380941,-1.973203 z m 4.099895,6.714323 1.840608,3.188026 c 0.207459,0.160425 0.456199,0.05603 0.731255,-0.102779 l 0.894092,-0.516204 c 0.348922,-0.20145 0.575512,-0.45727 0.37491,-0.804723 l -1.309858,-2.268741 c -0.200602,-0.347454 -0.642907,-0.465262 -0.991829,-0.263812 l -0.894092,0.516204 c -0.227273,0.156377 -0.442159,0.232752 -0.645086,0.252029 z"/> <circle style="fill:#000000;stroke:none;stroke-width:0.5;stroke-linecap:square;stroke-miterlimit:4;stroke-dasharray:none;stroke-opacity:1;paint-order:fill markers stroke" id="circle959" cx="18.839581" cy="-45.956314" r="9.6455688"/> <path id="path961" style="fill:#ffffff;stroke:none;stroke-width:0.5;stroke-linecap:square;stroke-miterlimit:4;stroke-dasharray:none;stroke-opacity:1;paint-order:fill markers stroke" d="m 15.843393,-51.00904 c -0.290247,0.167574 -0.509418,0.348268 -0.429944,0.655844 -1.395294,1.370658 -1.37935,4.161051 0.0378,6.615653 1.41288,2.44715 3.812024,3.856114 5.695282,3.344713 0.222089,0.26439 0.499622,0.152902 0.810713,-0.02671 l 0.893977,-0.516137 c 0.348921,-0.20145 0.575808,-0.457291 0.375205,-0.804745 l -1.309991,-2.268972 c -0.200603,-0.347454 -0.643008,-0.464901 -0.991929,-0.263451 l -0.893977,0.516137 c -1.1526,0.79304 -1.999484,-0.416111 -2.465613,-1.201165 -0.451615,-0.7606 -0.862932,-2.029928 0.224141,-2.681179 l 0.893976,-0.516138 c 0.348922,-0.20145 0.468416,-0.6433 0.267813,-0.990754 l -1.309991,-2.268972 C 17.440252,-51.76237 17.08629,-51.72663 16.737368,-51.52518 Z"/> <g id="g969" transform="translate(-29.356769,-48.861587)"> <path style="color:#000000;font-style:normal;font-variant:normal;font-weight:normal;font-stretch:normal;font-size:medium;line-height:normal;font-family:sans-serif;font-variant-ligatures:normal;font-variant-position:normal;font-variant-caps:normal;font-variant-numeric:normal;font-variant-alternates:normal;font-variant-east-asian:normal;font-feature-settings:normal;font-variation-settings:normal;text-indent:0;text-align:start;text-decoration:none;text-decoration-line:none;text-decoration-style:solid;text-decoration-color:#000000;letter-spacing:normal;word-spacing:normal;text-transform:none;writing-mode:lr-tb;direction:ltr;text-orientation:mixed;dominant-baseline:auto;baseline-shift:baseline;text-anchor:start;white-space:normal;shape-padding:0;shape-margin:0;inline-size:0;clip-rule:nonzero;display:inline;overflow:visible;visibility:visible;isolation:auto;mix-blend-mode:normal;color-interpolation:sRGB;color-interpolation-filters:linearRGB;solid-color:#000000;solid-opacity:1;vector-effect:none;fill:#000000;fill-opacity:1;fill-rule:nonzero;stroke:none;stroke-linecap:square;stroke-linejoin:miter;stroke-miterlimit:4;stroke-dasharray:none;stroke-dashoffset:0;stroke-opacity:1;paint-order:fill markers stroke;color-rendering:auto;image-rendering:auto;shape-rendering:auto;text-rendering:auto;enable-background:accumulate;stop-color:#000000" d="m 48.546875,-35.017578 c -5.516255,0 -9.996094,4.479839 -9.996094,9.996094 0,5.516254 4.479839,9.99414 9.996094,9.99414 5.516255,0 9.994141,-4.477886 9.994141,-9.99414 0,-5.516255 -4.477886,-9.996094 -9.994141,-9.996094 z m 0,0.699219 c 5.137947,0 9.294922,4.158928 9.294922,9.296875 0,5.137946 -4.156975,9.294922 -9.294922,9.294922 -5.137947,0 -9.296875,-4.156976 -9.296875,-9.294922 0,-5.137947 4.158928,-9.296875 9.296875,-9.296875 z" id="path965"/> <path id="path967" style="fill:#191919;fill-opacity:1;stroke:none;stroke-width:0.5;stroke-linecap:square;stroke-miterlimit:4;stroke-dasharray:none;stroke-opacity:1;paint-order:fill markers stroke" d="m 45.549711,-30.075187 c -0.290246,0.167573 -0.509418,0.348268 -0.429942,0.655844 -1.395296,1.370658 -1.379352,4.161051 0.0378,6.615652 1.412881,2.447151 3.812025,3.856114 5.695282,3.344714 0.22209,0.264391 0.499623,0.152902 0.810714,-0.02671 l 0.893976,-0.516137 c 0.348922,-0.20145 0.575808,-0.457291 0.375206,-0.804744 l -1.309993,-2.268969 c -0.200603,-0.347455 -0.643007,-0.464902 -0.991928,-0.263452 l -0.893977,0.516138 c -1.1526,0.79304 -1.999484,-0.41611 -2.465613,-1.201166 -0.451616,-0.760601 -0.862931,-2.029929 0.22414,-2.681179 l 0.893977,-0.516138 c 0.348921,-0.20145 0.468415,-0.6433 0.267813,-0.990753 l -1.309992,-2.268973 c -0.200603,-0.347454 -0.554565,-0.311715 -0.903486,-0.110265 z"/> </g> <path style="color:#000000;font-style:normal;font-variant:normal;font-weight:normal;font-stretch:normal;font-size:medium;line-height:normal;font-family:sans-serif;font-variant-ligatures:normal;font-variant-position:normal;font-variant-caps:normal;font-variant-numeric:normal;font-variant-alternates:normal;font-variant-east-asian:normal;font-feature-settings:normal;font-variation-settings:normal;text-indent:0;text-align:start;text-decoration:none;text-decoration-line:none;text-decoration-style:solid;text-decoration-color:#000000;letter-spacing:normal;word-spacing:normal;text-transform:none;writing-mode:lr-tb;direction:ltr;text-orientation:mixed;dominant-baseline:auto;baseline-shift:baseline;text-anchor:start;white-space:normal;shape-padding:0;shape-margin:0;inline-size:0;clip-rule:nonzero;display:inline;overflow:visible;visibility:visible;isolation:auto;mix-blend-mode:normal;color-interpolation:sRGB;color-interpolation-filters:linearRGB;solid-color:#000000;solid-opacity:1;vector-effect:none;fill:#000000;fill-opacity:1;fill-rule:nonzero;stroke:none;stroke-linecap:square;stroke-linejoin:miter;stroke-miterlimit:4;stroke-dasharray:none;stroke-dashoffset:0;stroke-opacity:1;paint-order:fill markers stroke;color-rendering:auto;image-rendering:auto;shape-rendering:auto;text-rendering:auto;enable-background:accumulate;stop-color:#000000" d="m 47.017578,-55.851562 c -5.46221,0 -9.896484,4.43232 -9.896484,9.894531 0,5.46221 4.434274,9.896484 9.896484,9.896484 5.462211,0 9.894531,-4.434274 9.894531,-9.896484 0,-5.462211 -4.43232,-9.894532 -9.894531,-9.894531 z m 0,0.5 c 5.191991,0 9.394531,4.20254 9.394531,9.394531 0,5.19199 -4.20254,9.396484 -9.394531,9.396484 -5.19199,0 -9.396484,-4.204494 -9.396484,-9.396484 0,-5.191991 4.204494,-9.394532 9.396484,-9.394531 z" id="path1048"/> <path style="color:#000000;font-style:normal;font-variant:normal;font-weight:normal;font-stretch:normal;font-size:medium;line-height:normal;font-family:sans-serif;font-variant-ligatures:normal;font-variant-position:normal;font-variant-caps:normal;font-variant-numeric:normal;font-variant-alternates:normal;font-variant-east-asian:normal;font-feature-settings:normal;font-variation-settings:normal;text-indent:0;text-align:start;text-decoration:none;text-decoration-line:none;text-decoration-style:solid;text-decoration-color:#000000;letter-spacing:normal;word-spacing:normal;text-transform:none;writing-mode:lr-tb;direction:ltr;text-orientation:mixed;dominant-baseline:auto;baseline-shift:baseline;text-anchor:start;white-space:normal;shape-padding:0;shape-margin:0;inline-size:0;clip-rule:nonzero;display:inline;overflow:visible;visibility:visible;isolation:auto;mix-blend-mode:normal;color-interpolation:sRGB;color-interpolation-filters:linearRGB;solid-color:#000000;solid-opacity:1;vector-effect:none;fill:#000000;fill-opacity:1;fill-rule:nonzero;stroke:none;stroke-linecap:square;stroke-linejoin:miter;stroke-miterlimit:4;stroke-dasharray:none;stroke-dashoffset:0;stroke-opacity:1;paint-order:fill markers stroke;color-rendering:auto;image-rendering:auto;shape-rendering:auto;text-rendering:auto;enable-background:accumulate;stop-color:#000000" d="m 45.443359,-51.923828 c -0.230712,-0.01367 -0.445866,0.06777 -0.646484,0.183594 l -0.894531,0.515625 c -0.155223,0.08962 -0.308174,0.186325 -0.425782,0.33789 -0.07801,0.100536 -0.07002,0.254316 -0.08008,0.396485 -1.481976,1.500023 -1.423324,4.373016 0.02344,6.878906 1.440909,2.495696 3.885089,3.979133 5.921875,3.46289 0.130571,0.07493 0.260308,0.175001 0.392578,0.158204 0.200728,-0.02549 0.367223,-0.118188 0.53125,-0.212891 l 0.894531,-0.515625 c 0.193828,-0.111907 0.373962,-0.24152 0.486328,-0.439453 0.112367,-0.197934 0.114461,-0.47495 -0.01953,-0.707031 l -1.310547,-2.267578 c -0.267985,-0.464165 -0.867427,-0.623709 -1.332031,-0.355469 l -0.902344,0.521484 -0.0098,0.0039 c -0.251932,0.173341 -0.458601,0.225607 -0.648438,0.214844 -0.189837,-0.01076 -0.373335,-0.08821 -0.552734,-0.21875 -0.358798,-0.261077 -0.678352,-0.733361 -0.90625,-1.117187 -0.211649,-0.356454 -0.411299,-0.838245 -0.431641,-1.267578 -0.02034,-0.429334 0.09817,-0.790584 0.568359,-1.072266 l 0.890626,-0.513672 c 0.464601,-0.268238 0.627359,-0.867868 0.359374,-1.332031 l -1.310546,-2.269531 c -0.133993,-0.232082 -0.366945,-0.371093 -0.597657,-0.384766 z m -0.0293,0.498047 c 0.08365,0.005 0.128703,0.02135 0.195313,0.136719 l 1.308594,2.269531 c 0.13322,0.230744 0.05746,0.513775 -0.175781,0.648437 l -0.896485,0.517578 c -0.616886,0.369569 -0.836999,0.969051 -0.810547,1.527344 0.02645,0.558293 0.260033,1.091948 0.5,1.496094 0.238231,0.40123 0.573642,0.926076 1.042969,1.267578 0.234663,0.170751 0.508717,0.295056 0.816406,0.3125 0.307689,0.01744 0.638523,-0.0776 0.962891,-0.300781 l -0.01758,0.01172 0.894531,-0.515626 c 0.233238,-0.13466 0.51717,-0.05887 0.650391,0.171876 l 1.308593,2.267578 c 0.06661,0.115371 0.05573,0.141772 0.01758,0.208984 -0.03816,0.06721 -0.145688,0.164363 -0.300782,0.253906 l -0.894531,0.517578 c -0.147064,0.08491 -0.272417,0.139379 -0.34375,0.148438 -0.07133,0.0091 -0.08346,0.01327 -0.150391,-0.06641 l -0.101562,-0.123047 -0.154297,0.04297 c -1.719367,0.466896 -4.041679,-0.851509 -5.414063,-3.228516 -1.376536,-2.384255 -1.351735,-5.061379 -0.07812,-6.3125 l 0.101562,-0.101563 -0.03516,-0.138671 c -0.02284,-0.08841 -0.01342,-0.108447 0.03125,-0.166016 0.04467,-0.05757 0.146226,-0.132982 0.28125,-0.210938 l 0.894531,-0.517578 c 0.148303,-0.08562 0.283537,-0.122145 0.367187,-0.117187 z" id="path1040"/> </g> </svg>