<?xml version="1.0" encoding="utf-8"?>
<svg viewBox="13.4 16.091 19.99 19.99" xmlns="http://www.w3.org/2000/svg">
  <path style="color: rgb(0, 0, 0); font: medium sans-serif; font-feature-settings: normal; font-variation-settings: normal; text-indent: 0px; text-align: start; text-decoration: none solid rgb(0, 0, 0); letter-spacing: normal; word-spacing: normal; text-transform: none; writing-mode: lr-tb; direction: ltr; text-orientation: mixed; dominant-baseline: auto; baseline-shift: baseline; text-anchor: start; white-space: normal; shape-margin: 0px; inline-size: 0px; clip-rule: nonzero; display: inline; overflow: visible; visibility: visible; isolation: auto; mix-blend-mode: normal; color-interpolation: srgb; color-interpolation-filters: linearrgb; vector-effect: none; fill-opacity: 1; fill-rule: nonzero; stroke: none; stroke-linecap: square; stroke-linejoin: miter; stroke-miterlimit: 4; stroke-dasharray: none; stroke-dashoffset: 0; stroke-opacity: 1; paint-order: fill markers; color-rendering: auto; image-rendering: auto; shape-rendering: auto; text-rendering: auto; stop-color: rgb(0, 0, 0); fill: rgb(255, 255, 255);" d="M 23.396 16.091 C 17.88 16.091 13.4 20.571 13.4 26.087 C 13.4 31.603 17.88 36.081 23.396 36.081 C 28.912 36.081 33.39 31.603 33.39 26.087 C 33.39 20.571 28.912 16.091 23.396 16.091 Z M 23.396 16.79 C 28.534 16.79 32.691 20.949 32.691 26.087 C 32.691 31.225 28.534 35.382 23.396 35.382 C 18.258 35.382 14.099 31.225 14.099 26.087 C 14.099 20.949 18.258 16.79 23.396 16.79 Z" id="path965"/>
  <path id="path967" style="fill-opacity: 1; stroke: none; stroke-width: 0.5; stroke-linecap: square; stroke-miterlimit: 4; stroke-dasharray: none; stroke-opacity: 1; paint-order: fill markers; fill: rgb(255, 255, 255);" d="M 20.399 21.033 C 20.109 21.201 19.889 21.381 19.969 21.689 C 18.574 23.06 18.589 25.85 20.007 28.305 C 21.42 30.752 23.819 32.161 25.702 31.649 C 25.924 31.914 26.202 31.802 26.513 31.623 L 27.407 31.107 C 27.756 30.905 27.982 30.649 27.782 30.302 L 26.472 28.033 C 26.271 27.685 25.829 27.568 25.48 27.769 L 24.586 28.286 C 23.433 29.079 22.586 27.869 22.12 27.084 C 21.669 26.324 21.257 25.054 22.344 24.403 L 23.238 23.887 C 23.587 23.686 23.707 23.244 23.506 22.896 L 22.196 20.627 C 21.996 20.28 21.642 20.316 21.293 20.517 L 20.399 21.033 Z"/>
</svg>