<?xml version="1.0" encoding="utf-8"?>
<svg viewBox="2.228 2.935 19.791 19.791" xmlns="http://www.w3.org/2000/svg">
  <path style="color: rgb(0, 0, 0); font: medium sans-serif; font-feature-settings: normal; font-variation-settings: normal; text-indent: 0px; text-align: start; text-decoration: none solid rgb(0, 0, 0); letter-spacing: normal; word-spacing: normal; text-transform: none; writing-mode: lr-tb; direction: ltr; text-orientation: mixed; dominant-baseline: auto; baseline-shift: baseline; text-anchor: start; white-space: normal; shape-margin: 0px; inline-size: 0px; clip-rule: nonzero; display: inline; overflow: visible; visibility: visible; isolation: auto; mix-blend-mode: normal; color-interpolation: srgb; color-interpolation-filters: linearrgb; vector-effect: none; fill: rgb(0, 0, 0); fill-opacity: 1; fill-rule: nonzero; stroke-linecap: square; stroke-linejoin: miter; stroke-miterlimit: 4; stroke-dasharray: none; stroke-dashoffset: 0; stroke-opacity: 1; paint-order: fill markers; color-rendering: auto; image-rendering: auto; shape-rendering: auto; text-rendering: auto; stop-color: rgb(0, 0, 0); stroke: rgb(255, 255, 255);" d="M 12.124 2.935 C 6.662 2.935 2.228 7.368 2.228 12.83 C 2.228 18.292 6.662 22.726 12.124 22.726 C 17.586 22.726 22.019 18.292 22.019 12.83 C 22.019 7.368 17.586 2.935 12.124 2.935 Z M 12.124 3.435 C 17.316 3.435 21.519 7.638 21.519 12.83 C 21.519 18.022 17.316 22.226 12.124 22.226 C 6.932 22.226 2.728 18.022 2.728 12.83 C 2.728 7.638 6.932 3.435 12.124 3.435 Z" id="path1048"/>
  <path id="path-1" style="stroke-linecap: square; stroke-miterlimit: 4; stroke-dasharray: none; stroke-opacity: 1; paint-order: fill markers; fill: none; stroke: rgb(255, 255, 255);" d="M 8.878 7.778 C 8.601 7.937 8.392 8.11 8.441 8.392 L 10.319 11.643 C 10.666 11.144 11.175 10.944 11.717 10.631 C 12.066 10.43 12.186 9.988 11.985 9.641 L 10.675 7.372 C 10.474 7.024 10.121 7.06 9.772 7.261 L 8.878 7.778 Z M 8.32 8.568 C 7.055 9.98 7.113 12.672 8.485 15.049 C 9.857 17.425 12.159 18.822 14.016 18.433 L 12.194 15.278 C 11.48 15.193 10.938 14.4 10.599 13.829 C 10.28 13.292 9.984 12.503 10.218 11.856 L 8.32 8.568 Z M 12.42 15.282 L 14.26 18.47 C 14.468 18.63 14.716 18.526 14.991 18.367 L 15.886 17.851 C 16.234 17.649 16.461 17.394 16.26 17.046 L 14.951 14.777 C 14.75 14.43 14.308 14.312 13.959 14.514 L 13.065 15.03 C 12.837 15.186 12.623 15.263 12.42 15.282 Z"/>
</svg>